<svg width="32" height="32" viewBox="0 0 32 32" fill="none" xmlns="http://www.w3.org/2000/svg">
<path d="M28.75 13.9999C28.75 13.2705 28.4603 12.5711 27.9445 12.0553C27.4288 11.5396 26.7293 11.2499 26 11.2499H16.75V9.67489C17.5965 9.50091 18.3571 9.04037 18.9036 8.37092C19.4501 7.70148 19.749 6.86407 19.75 5.99989C19.75 2.63739 16.5525 0.466142 16.4163 0.374892C16.293 0.292662 16.1482 0.248779 16 0.248779C15.8518 0.248779 15.707 0.292662 15.5837 0.374892C15.4475 0.466142 12.25 2.63739 12.25 5.99989C12.251 6.86407 12.5499 7.70148 13.0964 8.37092C13.6429 9.04037 14.4035 9.50091 15.25 9.67489V11.2499H6C5.27065 11.2499 4.57118 11.5396 4.05546 12.0553C3.53973 12.5711 3.25 13.2705 3.25 13.9999V16.9161C3.25082 17.9814 3.60224 19.0167 4.25 19.8624V24.9999C4.25 25.7292 4.53973 26.4287 5.05546 26.9444C5.57118 27.4602 6.27065 27.7499 7 27.7499H25C25.7293 27.7499 26.4288 27.4602 26.9445 26.9444C27.4603 26.4287 27.75 25.7292 27.75 24.9999V19.8624C28.3978 19.0167 28.7492 17.9814 28.75 16.9161V13.9999ZM13.75 5.99989C13.75 4.07489 15.25 2.57364 16 1.94489C16.75 2.56989 18.25 4.06989 18.25 5.99989C18.25 6.59663 18.0129 7.16892 17.591 7.59088C17.169 8.01284 16.5967 8.24989 16 8.24989C15.4033 8.24989 14.831 8.01284 14.409 7.59088C13.9871 7.16892 13.75 6.59663 13.75 5.99989ZM4.75 13.9999C4.75 13.6684 4.8817 13.3504 5.11612 13.116C5.35054 12.8816 5.66848 12.7499 6 12.7499H26C26.3315 12.7499 26.6495 12.8816 26.8839 13.116C27.1183 13.3504 27.25 13.6684 27.25 13.9999V16.9161C27.25 18.7061 25.8338 20.2011 24.0925 20.2486C23.6581 20.261 23.2256 20.1861 22.8206 20.0284C22.4157 19.8707 22.0465 19.6334 21.7348 19.3305C21.4232 19.0276 21.1755 18.6653 21.0063 18.265C20.8371 17.8647 20.75 17.4345 20.75 16.9999C20.75 16.801 20.671 16.6102 20.5303 16.4696C20.3897 16.3289 20.1989 16.2499 20 16.2499C19.8011 16.2499 19.6103 16.3289 19.4697 16.4696C19.329 16.6102 19.25 16.801 19.25 16.9999C19.25 17.8618 18.9076 18.6885 18.2981 19.298C17.6886 19.9075 16.862 20.2499 16 20.2499C15.138 20.2499 14.3114 19.9075 13.7019 19.298C13.0924 18.6885 12.75 17.8618 12.75 16.9999C12.75 16.801 12.671 16.6102 12.5303 16.4696C12.3897 16.3289 12.1989 16.2499 12 16.2499C11.8011 16.2499 11.6103 16.3289 11.4697 16.4696C11.329 16.6102 11.25 16.801 11.25 16.9999C11.2502 17.4346 11.1631 17.8649 10.9941 18.2654C10.825 18.6658 10.5773 19.0283 10.2656 19.3313C9.95397 19.6344 9.58469 19.8718 9.17965 20.0296C8.7746 20.1873 8.34202 20.2623 7.9075 20.2499C6.16625 20.2011 4.75 18.7061 4.75 16.9161V13.9999ZM25 26.2499H7C6.66848 26.2499 6.35054 26.1182 6.11612 25.8838C5.8817 25.6494 5.75 25.3314 5.75 24.9999V21.1636C6.39812 21.5272 7.12467 21.7284 7.8675 21.7499C8.50264 21.7687 9.13507 21.6593 9.72698 21.4282C10.3189 21.1971 10.8581 20.8491 11.3125 20.4049C11.5725 20.1507 11.8031 19.8681 12 19.5624C12.4297 20.2333 13.0213 20.7854 13.7203 21.1678C14.4193 21.5502 15.2032 21.7507 16 21.7507C16.7968 21.7507 17.5807 21.5502 18.2797 21.1678C18.9787 20.7854 19.5703 20.2333 20 19.5624C20.1977 19.8682 20.4291 20.1508 20.69 20.4049C21.5742 21.27 22.763 21.753 24 21.7499H24.1338C24.8762 21.7282 25.6023 21.527 26.25 21.1636V24.9999C26.25 25.3314 26.1183 25.6494 25.8839 25.8838C25.6495 26.1182 25.3315 26.2499 25 26.2499Z" fill="#22C1C1"/>
</svg>
