<svg width="64" height="64" viewBox="0 0 64 64" fill="none" xmlns="http://www.w3.org/2000/svg">
<circle opacity="0.15" cx="32" cy="32" r="32" fill="#22C1C1"/>
<path d="M45.7504 28C45.7504 28.1989 45.6714 28.3897 45.5308 28.5303C45.3901 28.671 45.1994 28.75 45.0004 28.75H42.7504V31C42.7504 31.1989 42.6714 31.3897 42.5308 31.5303C42.3901 31.671 42.1994 31.75 42.0004 31.75C41.8015 31.75 41.6108 31.671 41.4701 31.5303C41.3295 31.3897 41.2504 31.1989 41.2504 31V28.75H39.0004C38.8015 28.75 38.6108 28.671 38.4701 28.5303C38.3295 28.3897 38.2504 28.1989 38.2504 28C38.2504 27.8011 38.3295 27.6103 38.4701 27.4697C38.6108 27.329 38.8015 27.25 39.0004 27.25H41.2504V25C41.2504 24.8011 41.3295 24.6103 41.4701 24.4697C41.6108 24.329 41.8015 24.25 42.0004 24.25C42.1994 24.25 42.3901 24.329 42.5308 24.4697C42.6714 24.6103 42.7504 24.8011 42.7504 25V27.25H45.0004C45.1994 27.25 45.3901 27.329 45.5308 27.4697C45.6714 27.6103 45.7504 27.8011 45.7504 28ZM34.0004 22.75H35.2504V24C35.2504 24.1989 35.3295 24.3897 35.4701 24.5303C35.6108 24.671 35.8015 24.75 36.0004 24.75C36.1994 24.75 36.3901 24.671 36.5308 24.5303C36.6714 24.3897 36.7504 24.1989 36.7504 24V22.75H38.0004C38.1994 22.75 38.3901 22.671 38.5308 22.5303C38.6714 22.3897 38.7504 22.1989 38.7504 22C38.7504 21.8011 38.6714 21.6103 38.5308 21.4697C38.3901 21.329 38.1994 21.25 38.0004 21.25H36.7504V20C36.7504 19.8011 36.6714 19.6103 36.5308 19.4697C36.3901 19.329 36.1994 19.25 36.0004 19.25C35.8015 19.25 35.6108 19.329 35.4701 19.4697C35.3295 19.6103 35.2504 19.8011 35.2504 20V21.25H34.0004C33.8015 21.25 33.6108 21.329 33.4701 21.4697C33.3295 21.6103 33.2504 21.8011 33.2504 22C33.2504 22.1989 33.3295 22.3897 33.4701 22.5303C33.6108 22.671 33.8015 22.75 34.0004 22.75ZM42.9067 35.285C42.9939 35.3867 43.0524 35.5099 43.0759 35.6418C43.0994 35.7736 43.0872 35.9094 43.0404 36.035C42.3617 37.8886 41.227 39.5413 39.741 40.8406C38.255 42.1399 36.4656 43.0439 34.538 43.4691C32.6104 43.8943 30.6067 43.827 28.712 43.2735C26.8173 42.72 25.0925 41.6981 23.697 40.3021C22.3014 38.9061 21.28 37.181 20.7272 35.286C20.1743 33.3911 20.1077 31.3875 20.5335 29.46C20.9594 27.5326 21.864 25.7435 23.1638 24.2579C24.4635 22.7723 26.1166 21.6381 27.9704 20.96C28.0953 20.9146 28.2299 20.9031 28.3606 20.9268C28.4913 20.9505 28.6134 21.0085 28.7143 21.0948C28.8153 21.1811 28.8915 21.2927 28.9352 21.4182C28.9789 21.5436 28.9884 21.6784 28.9629 21.8088C28.6415 23.44 28.6852 25.1222 29.0909 26.7346C29.4966 28.3469 30.2542 29.8495 31.3093 31.1344C32.3644 32.4194 33.6909 33.4548 35.1936 34.1663C36.6963 34.8779 38.3378 35.248 40.0004 35.25C40.736 35.2503 41.4699 35.1791 42.1917 35.0375C42.3221 35.0117 42.4571 35.021 42.5827 35.0645C42.7083 35.108 42.8201 35.1841 42.9067 35.285ZM41.1104 36.7025C40.7421 36.7342 40.3721 36.75 40.0004 36.75C36.6202 36.746 33.3794 35.4015 30.9892 33.0112C28.599 30.621 27.2544 27.3803 27.2504 24C27.2504 23.6292 27.2663 23.2592 27.2979 22.89C25.8656 23.6305 24.6282 24.6985 23.6862 26.0072C22.7443 27.3159 22.1244 28.8283 21.8768 30.4216C21.6293 32.0149 21.7612 33.6442 22.2617 35.177C22.7622 36.7097 23.6173 38.1028 24.7575 39.2429C25.8977 40.3831 27.2907 41.2382 28.8235 41.7387C30.3563 42.2393 31.9855 42.3711 33.5788 42.1236C35.1721 41.8761 36.6846 41.2562 37.9933 40.3142C39.3019 39.3722 40.3699 38.1348 41.1104 36.7025Z" fill="#22C1C1"/>
</svg>
